<mxfile host="app.diagrams.net" modified="2023-11-22T10:06:57.084Z" agent="Mozilla/5.0 (Windows NT 10.0; Win64; x64; rv:109.0) Gecko/20100101 Firefox/119.0" version="22.1.3" etag="TdN8iZrNKuwt_hz6yQxe" type="github">
  <diagram name="Seite-1" id="ukzAiZOhcZZs0SP1jj12">
    <mxGraphModel>
      <root>
        <mxCell id="0" />
        <mxCell id="1" parent="0" />
      </root>
    </mxGraphModel>
  </diagram>
</mxfile>
